<?xml version="1.0" encoding="utf-8"?>
<svg version="1.1" id="Layer_12" xmlns="http://www.w3.org/2000/svg" xmlns:xlink="http://www.w3.org/1999/xlink" x="0px" y="0px"
	 width="512px" height="512px" viewBox="0 0 512 512" enable-background="new 0 0 512 512" xml:space="preserve">
<path fill-rule="evenodd" clip-rule="evenodd" fill="#C5001A" d="M494.508,176c0,8.844-7.18,16-16,16
	c-8.047,0-14.641-5.953-15.766-13.691C457.93,158.719,438.867,144,416,144c-26.516,0-48,19.703-48,44.004
	c0,17.766,11.562,32.969,28.086,39.914l-0.078,0.215l47.18,15.516C482.969,254.391,512,288.078,512,328.008
	C512,376.594,469.023,416,416,416c-39,0-72.281-21.43-87.312-52.031c-0.836-1.086-1.586-2.25-2.133-3.57l-64.117-154.766
	l-0.094,0.039C244.016,160.02,201.523,128,151.992,128C85.723,128,32,185.309,32,256c0,70.688,53.723,128,119.992,128
	c20.496,0,39.773-5.508,56.648-15.164l0.02,0.016c2.211-1.141,4.672-1.859,7.332-1.859c8.844,0,15.996,7.172,15.996,16
	c0,5.82-3.141,10.82-7.754,13.633l0.074,0.133C202.801,409.039,178.172,416,151.992,416C68.055,416,0,344.359,0,256
	S68.055,96,151.992,96c62.176,0,115.586,39.352,139.109,95.613c0.234,0.445,0.523,0.852,0.719,1.316l64.133,154.844l0.195-0.078
	C365.266,368.891,388.578,384,416,384c35.352,0,64-25.078,64-55.992c0-24.062-17.414-44.445-41.758-52.383
	c-0.211-0.055-0.422-0.055-0.641-0.133l-45.789-15.055c-0.031-0.016-0.055,0-0.094-0.016l-7.312-2.406
	c-1.32-0.422-2.5-1.047-3.609-1.766c-3.562-1.664-7-3.602-10.258-5.742c0.062-0.016,0.102-0.07,0.156-0.094
	c-12.977-8.516-23.195-20.52-29.094-34.598c-0.133-0.293-0.227-0.602-0.344-0.895c-0.93-2.305-1.727-4.672-2.406-7.078
	c-0.211-0.734-0.391-1.434-0.586-2.172c-0.539-2.172-0.984-4.383-1.336-6.633c-0.117-0.68-0.25-1.375-0.328-2.074
	c-0.367-2.949-0.602-5.914-0.602-8.961C336,146.016,371.82,112,416,112c39.023,0,71.445,26.551,78.523,61.672l-0.25,0.039
	C494.391,174.469,494.508,175.223,494.508,176L494.508,176z M272,336c8.844,0,16,7.156,16,16s-7.156,16-16,16s-16-7.156-16-16
	S263.156,336,272,336L272,336z"/>
</svg>
