<svg xmlns="http://www.w3.org/2000/svg" viewBox="0 0 64 64"><defs><style>.cls-1{fill:#37474f;}.cls-2{fill:#78909c;}</style></defs><title>Wheel</title><g id="Layer_2" data-name="Layer 2"><g id="Layer_1-2" data-name="Layer 1"><path class="cls-1" d="M63.56,37.26a31.66,31.66,0,0,0,0-10.52l-1,.19-.39-2,1-.19a31.81,31.81,0,0,0-4-9.72l-.82.55-1.11-1.66L58,13.4A32,32,0,0,0,50.6,6L50,6.78,48.39,5.67l.55-.82a31.81,31.81,0,0,0-9.72-4l-.19,1-2-.39.19-1a31.66,31.66,0,0,0-10.52,0l.19,1-2,.39-.19-1a31.81,31.81,0,0,0-9.72,4l.55.82L14,6.78,13.4,6A32,32,0,0,0,6,13.4l.81.55L5.67,15.61l-.82-.55a31.81,31.81,0,0,0-4,9.72l1,.19-.39,2-1-.19a31.66,31.66,0,0,0,0,10.52l1-.19.39,2-1,.19a31.81,31.81,0,0,0,4,9.72l.82-.55,1.11,1.66L6,50.6A32,32,0,0,0,13.4,58l.55-.81,1.66,1.11-.55.82a31.8,31.8,0,0,0,9.72,4l.19-1,2,.39-.19,1a31.66,31.66,0,0,0,10.52,0l-.19-1,2-.39.19,1a31.8,31.8,0,0,0,9.72-4l-.55-.82L50,57.22l.55.81A32,32,0,0,0,58,50.6l-.81-.55,1.11-1.66.82.55a31.81,31.81,0,0,0,4-9.72l-1-.19.39-2ZM32,50A18,18,0,1,1,50,32,18,18,0,0,1,32,50Z"/><polygon class="cls-1" points="37.15 37.38 33.62 32.53 39.33 30.67 42.36 33.74 51.04 33.14 50.9 31.15 43.14 31.68 40.67 29.18 41.19 25.71 47.8 21.58 46.73 19.88 39.35 24.5 38.71 28.77 33 30.62 33 24.62 36.86 22.69 38.97 14.24 37.03 13.76 35.14 21.31 32 22.88 28.86 21.31 26.97 13.76 25.03 14.24 27.14 22.69 31 24.62 31 30.62 25.29 28.77 24.65 24.5 17.27 19.88 16.2 21.58 22.81 25.71 23.33 29.18 20.86 31.68 13.1 31.15 12.96 33.14 21.64 33.74 24.67 30.67 30.38 32.53 26.85 37.38 22.6 36.68 15.92 42.27 17.21 43.8 23.18 38.8 26.64 39.38 28.26 42.49 25.35 49.72 27.2 50.46 30.46 42.39 28.47 38.56 32 33.7 35.53 38.56 33.54 42.39 36.8 50.46 38.65 49.72 35.74 42.49 37.36 39.38 40.82 38.8 46.79 43.8 48.08 42.27 41.4 36.68 37.15 37.38"/><circle class="cls-2" cx="32" cy="32" r="6"/><circle class="cls-1" cx="32" cy="30" r="1"/><path class="cls-2" d="M32,12A20,20,0,1,0,52,32,20,20,0,0,0,32,12Zm0,36A16,16,0,1,1,48,32,16,16,0,0,1,32,48Z"/><circle class="cls-1" cx="30" cy="32" r="1"/><circle class="cls-1" cx="34" cy="32" r="1"/><circle class="cls-1" cx="32" cy="34" r="1"/></g></g></svg>